<svg id="visual" viewBox="0 0 900 600" width="900" height="600" xmlns="http://www.w3.org/2000/svg" xmlns:xlink="http://www.w3.org/1999/xlink" version="1.1"><path d="M0 397L21.5 404.7C43 412.3 86 427.7 128.8 429.2C171.7 430.7 214.3 418.3 257.2 426C300 433.7 343 461.3 385.8 473.8C428.7 486.3 471.3 483.7 514.2 471.8C557 460 600 439 642.8 433C685.7 427 728.3 436 771.2 435.2C814 434.3 857 423.7 878.5 418.3L900 413L900 601L878.5 601C857 601 814 601 771.2 601C728.3 601 685.7 601 642.8 601C600 601 557 601 514.2 601C471.3 601 428.7 601 385.8 601C343 601 300 601 257.2 601C214.3 601 171.7 601 128.8 601C86 601 43 601 21.5 601L0 601Z" fill="#002233" stroke-linecap="round" stroke-linejoin="miter"></path></svg>